STARTFONT 2.1
COMMENT Generated from X font `-adobe-helvetica-medium-r-normal--14-140-75-75-p-77-iso8859-1' by getbdf
FONT -adobe-helvetica-medium-r-normal--14-140-75-75-p-77-iso8859-1
SIZE 14 75 75
FONTBOUNDINGBOX 15 17 -1 -3
STARTPROPERTIES 30
FONT_ASCENT 13
FONT_DESCENT 3
DEFAULT_CHAR 0
FOUNDRY "Adobe"
FAMILY_NAME "Helvetica"
WEIGHT_NAME "Medium"
SLANT "R"
SETWIDTH_NAME "Normal"
ADD_STYLE_NAME ""
PIXEL_SIZE 14
POINT_SIZE 140
RESOLUTION_X 75
RESOLUTION_Y 75
SPACING "P"
AVERAGE_WIDTH 77
CHARSET_REGISTRY "ISO8859"
CHARSET_ENCODING "1"
CAP_HEIGHT 11
X_HEIGHT 8
FACE_NAME "Helvetica"
COPYRIGHT "Copyright (c) 1984, 1987 Adobe Systems Incorporated. All Rights Reserved. Copyright (c) 1988, 1991 Digital Equipment Corporation. All Rights Reserved."
NOTICE "Helvetica is a trademark of Linotype-Hell AG and/or its subsidiaries.  "
_DEC_DEVICE_FONTNAMES 214
RELATIVE_SETWIDTH 50
RELATIVE_WEIGHT 50
FULL_NAME "Helvetica"
FONT "-Adobe-Helvetica-Medium-R-Normal--14-140-75-75-P-77-ISO8859-1"
WEIGHT 10
RESOLUTION 103
QUAD_WIDTH 9
ENDPROPERTIES
CHARS 192
STARTCHAR 0
ENCODING 0
SWIDTH 685 0
DWIDTH 10 0
BBX 7 11 1 0
BITMAP
aa
00
82
00
82
00
82
00
82
00
aa
ENDCHAR
STARTCHAR 32
ENCODING 32
SWIDTH 274 0
DWIDTH 4 0
BBX 1 1 0 0
BITMAP
00
ENDCHAR
STARTCHAR 33
ENCODING 33
SWIDTH 274 0
DWIDTH 4 0
BBX 1 11 2 0
BITMAP
80
80
80
80
80
80
80
80
00
80
80
ENDCHAR
STARTCHAR 34
ENCODING 34
SWIDTH 342 0
DWIDTH 5 0
BBX 3 3 1 8
BITMAP
a0
a0
a0
ENDCHAR
STARTCHAR 35
ENCODING 35
SWIDTH 548 0
DWIDTH 8 0
BBX 7 10 0 0
BITMAP
14
14
14
7e
28
28
fc
50
50
50
ENDCHAR
STARTCHAR 36
ENCODING 36
SWIDTH 548 0
DWIDTH 8 0
BBX 7 14 0 -2
BITMAP
10
10
7c
92
92
50
38
14
12
92
92
7c
10
10
ENDCHAR
STARTCHAR 37
ENCODING 37
SWIDTH 822 0
DWIDTH 12 0
BBX 11 10 0 0
BITMAP
7080
8900
8900
7200
0200
0400
09c0
1220
1220
21c0
ENDCHAR
STARTCHAR 38
ENCODING 38
SWIDTH 685 0
DWIDTH 10 0
BBX 8 10 1 0
BITMAP
30
48
48
30
20
52
8a
84
8a
71
ENDCHAR
STARTCHAR 39
ENCODING 39
SWIDTH 205 0
DWIDTH 3 0
BBX 1 3 1 8
BITMAP
80
80
80
ENDCHAR
STARTCHAR 40
ENCODING 40
SWIDTH 342 0
DWIDTH 5 0
BBX 3 14 1 -3
BITMAP
20
40
40
80
80
80
80
80
80
80
80
40
40
20
ENDCHAR
STARTCHAR 41
ENCODING 41
SWIDTH 342 0
DWIDTH 5 0
BBX 3 14 1 -3
BITMAP
80
40
40
20
20
20
20
20
20
20
20
40
40
80
ENDCHAR
STARTCHAR 42
ENCODING 42
SWIDTH 480 0
DWIDTH 7 0
BBX 5 4 1 6
BITMAP
20
f8
20
50
ENDCHAR
STARTCHAR 43
ENCODING 43
SWIDTH 617 0
DWIDTH 9 0
BBX 7 7 1 1
BITMAP
10
10
10
fe
10
10
10
ENDCHAR
STARTCHAR 44
ENCODING 44
SWIDTH 205 0
DWIDTH 3 0
BBX 2 4 0 -2
BITMAP
40
40
40
80
ENDCHAR
STARTCHAR 45
ENCODING 45
SWIDTH 342 0
DWIDTH 5 0
BBX 4 1 0 4
BITMAP
f0
ENDCHAR
STARTCHAR 46
ENCODING 46
SWIDTH 205 0
DWIDTH 3 0
BBX 1 2 1 0
BITMAP
80
80
ENDCHAR
STARTCHAR 47
ENCODING 47
SWIDTH 274 0
DWIDTH 4 0
BBX 4 11 0 0
BITMAP
10
10
20
20
20
40
40
40
80
80
80
ENDCHAR
STARTCHAR 48
ENCODING 48
SWIDTH 548 0
DWIDTH 8 0
BBX 6 10 1 0
BITMAP
78
84
84
84
84
84
84
84
84
78
ENDCHAR
STARTCHAR 49
ENCODING 49
SWIDTH 548 0
DWIDTH 8 0
BBX 3 10 2 0
BITMAP
20
e0
20
20
20
20
20
20
20
20
ENDCHAR
STARTCHAR 50
ENCODING 50
SWIDTH 548 0
DWIDTH 8 0
BBX 6 10 1 0
BITMAP
78
84
84
08
10
20
40
80
80
fc
ENDCHAR
STARTCHAR 51
ENCODING 51
SWIDTH 548 0
DWIDTH 8 0
BBX 6 10 1 0
BITMAP
78
84
84
04
38
04
04
84
84
78
ENDCHAR
STARTCHAR 52
ENCODING 52
SWIDTH 548 0
DWIDTH 8 0
BBX 7 10 1 0
BITMAP
0c
14
24
24
44
84
fe
04
04
04
ENDCHAR
STARTCHAR 53
ENCODING 53
SWIDTH 548 0
DWIDTH 8 0
BBX 6 10 1 0
BITMAP
fc
80
80
80
f8
04
04
84
84
78
ENDCHAR
STARTCHAR 54
ENCODING 54
SWIDTH 548 0
DWIDTH 8 0
BBX 6 10 1 0
BITMAP
78
84
80
80
b8
c4
84
84
84
78
ENDCHAR
STARTCHAR 55
ENCODING 55
SWIDTH 548 0
DWIDTH 8 0
BBX 6 10 1 0
BITMAP
fc
04
08
08
10
10
20
20
40
40
ENDCHAR
STARTCHAR 56
ENCODING 56
SWIDTH 548 0
DWIDTH 8 0
BBX 6 10 1 0
BITMAP
78
84
84
84
78
84
84
84
84
78
ENDCHAR
STARTCHAR 57
ENCODING 57
SWIDTH 548 0
DWIDTH 8 0
BBX 6 10 1 0
BITMAP
78
84
84
84
84
7c
04
84
84
78
ENDCHAR
STARTCHAR 58
ENCODING 58
SWIDTH 205 0
DWIDTH 3 0
BBX 1 8 1 0
BITMAP
80
80
00
00
00
00
80
80
ENDCHAR
STARTCHAR 59
ENCODING 59
SWIDTH 274 0
DWIDTH 4 0
BBX 2 10 0 -2
BITMAP
40
40
00
00
00
00
40
40
40
80
ENDCHAR
STARTCHAR 60
ENCODING 60
SWIDTH 548 0
DWIDTH 8 0
BBX 6 5 1 2
BITMAP
0c
30
c0
30
0c
ENDCHAR
STARTCHAR 61
ENCODING 61
SWIDTH 617 0
DWIDTH 9 0
BBX 6 3 1 3
BITMAP
fc
00
fc
ENDCHAR
STARTCHAR 62
ENCODING 62
SWIDTH 548 0
DWIDTH 8 0
BBX 6 5 1 2
BITMAP
c0
30
0c
30
c0
ENDCHAR
STARTCHAR 63
ENCODING 63
SWIDTH 548 0
DWIDTH 8 0
BBX 6 11 1 0
BITMAP
30
cc
84
84
04
08
10
20
00
20
20
ENDCHAR
STARTCHAR 64
ENCODING 64
SWIDTH 891 0
DWIDTH 13 0
BBX 11 12 1 -1
BITMAP
0f00
30c0
4020
46a0
8920
9120
9120
9340
8d80
4000
6080
1f00
ENDCHAR
STARTCHAR 65
ENCODING 65
SWIDTH 754 0
DWIDTH 11 0
BBX 9 11 1 0
BITMAP
0800
0800
1400
1400
2200
2200
4100
7f00
4100
8080
8080
ENDCHAR
STARTCHAR 66
ENCODING 66
SWIDTH 617 0
DWIDTH 9 0
BBX 7 11 1 0
BITMAP
fc
86
82
82
82
fc
82
82
82
82
fc
ENDCHAR
STARTCHAR 67
ENCODING 67
SWIDTH 685 0
DWIDTH 10 0
BBX 8 11 1 0
BITMAP
1c
63
41
80
80
80
80
80
41
63
1c
ENDCHAR
STARTCHAR 68
ENCODING 68
SWIDTH 685 0
DWIDTH 10 0
BBX 8 11 1 0
BITMAP
f8
86
82
81
81
81
81
81
82
86
f8
ENDCHAR
STARTCHAR 69
ENCODING 69
SWIDTH 617 0
DWIDTH 9 0
BBX 7 11 1 0
BITMAP
fe
80
80
80
80
fc
80
80
80
80
fe
ENDCHAR
STARTCHAR 70
ENCODING 70
SWIDTH 617 0
DWIDTH 9 0
BBX 7 11 1 0
BITMAP
fe
80
80
80
80
fc
80
80
80
80
80
ENDCHAR
STARTCHAR 71
ENCODING 71
SWIDTH 754 0
DWIDTH 11 0
BBX 9 11 1 0
BITMAP
1e00
6180
4080
8000
8000
8780
8080
8080
4080
6380
1c80
ENDCHAR
STARTCHAR 72
ENCODING 72
SWIDTH 685 0
DWIDTH 10 0
BBX 8 11 1 0
BITMAP
81
81
81
81
81
ff
81
81
81
81
81
ENDCHAR
STARTCHAR 73
ENCODING 73
SWIDTH 342 0
DWIDTH 5 0
BBX 1 11 2 0
BITMAP
80
80
80
80
80
80
80
80
80
80
80
ENDCHAR
STARTCHAR 74
ENCODING 74
SWIDTH 548 0
DWIDTH 8 0
BBX 6 11 1 0
BITMAP
04
04
04
04
04
04
04
04
84
84
78
ENDCHAR
STARTCHAR 75
ENCODING 75
SWIDTH 685 0
DWIDTH 10 0
BBX 8 11 1 0
BITMAP
82
84
88
90
a0
e0
90
88
84
82
81
ENDCHAR
STARTCHAR 76
ENCODING 76
SWIDTH 548 0
DWIDTH 8 0
BBX 6 11 1 0
BITMAP
80
80
80
80
80
80
80
80
80
80
fc
ENDCHAR
STARTCHAR 77
ENCODING 77
SWIDTH 891 0
DWIDTH 13 0
BBX 11 11 1 0
BITMAP
8020
8020
c060
a0a0
a0a0
9120
9120
8a20
8a20
8420
8420
ENDCHAR
STARTCHAR 78
ENCODING 78
SWIDTH 685 0
DWIDTH 10 0
BBX 8 11 1 0
BITMAP
c1
c1
a1
91
91
89
89
85
85
83
83
ENDCHAR
STARTCHAR 79
ENCODING 79
SWIDTH 754 0
DWIDTH 11 0
BBX 9 11 1 0
BITMAP
1c00
6300
4100
8080
8080
8080
8080
8080
4100
6300
1c00
ENDCHAR
STARTCHAR 80
ENCODING 80
SWIDTH 617 0
DWIDTH 9 0
BBX 7 11 1 0
BITMAP
fc
86
82
82
86
fc
80
80
80
80
80
ENDCHAR
STARTCHAR 81
ENCODING 81
SWIDTH 754 0
DWIDTH 11 0
BBX 9 11 1 0
BITMAP
1c00
6300
4100
8080
8080
8080
8880
8480
4300
6300
1c80
ENDCHAR
STARTCHAR 82
ENCODING 82
SWIDTH 617 0
DWIDTH 9 0
BBX 7 11 1 0
BITMAP
fc
86
82
82
84
f8
84
82
82
82
82
ENDCHAR
STARTCHAR 83
ENCODING 83
SWIDTH 617 0
DWIDTH 9 0
BBX 7 11 1 0
BITMAP
38
c6
82
80
60
18
06
02
82
c6
38
ENDCHAR
STARTCHAR 84
ENCODING 84
SWIDTH 617 0
DWIDTH 9 0
BBX 9 11 0 0
BITMAP
ff80
0800
0800
0800
0800
0800
0800
0800
0800
0800
0800
ENDCHAR
STARTCHAR 85
ENCODING 85
SWIDTH 685 0
DWIDTH 10 0
BBX 8 11 1 0
BITMAP
81
81
81
81
81
81
81
81
81
42
3c
ENDCHAR
STARTCHAR 86
ENCODING 86
SWIDTH 754 0
DWIDTH 11 0
BBX 9 11 1 0
BITMAP
8080
8080
4100
4100
2200
2200
2200
1400
1400
0800
0800
ENDCHAR
STARTCHAR 87
ENCODING 87
SWIDTH 1028 0
DWIDTH 15 0
BBX 13 11 1 0
BITMAP
8208
8208
8508
4510
4510
4510
28a0
28a0
28a0
1040
1040
ENDCHAR
STARTCHAR 88
ENCODING 88
SWIDTH 685 0
DWIDTH 10 0
BBX 8 11 1 0
BITMAP
81
81
42
24
18
18
24
42
42
81
81
ENDCHAR
STARTCHAR 89
ENCODING 89
SWIDTH 617 0
DWIDTH 9 0
BBX 9 11 0 0
BITMAP
8080
4100
4100
2200
2200
1400
0800
0800
0800
0800
0800
ENDCHAR
STARTCHAR 90
ENCODING 90
SWIDTH 617 0
DWIDTH 9 0
BBX 7 11 1 0
BITMAP
fe
02
04
08
18
10
20
60
40
80
fe
ENDCHAR
STARTCHAR 91
ENCODING 91
SWIDTH 274 0
DWIDTH 4 0
BBX 3 14 1 -3
BITMAP
e0
80
80
80
80
80
80
80
80
80
80
80
80
e0
ENDCHAR
STARTCHAR 92
ENCODING 92
SWIDTH 274 0
DWIDTH 4 0
BBX 4 11 0 0
BITMAP
80
80
40
40
40
20
20
20
10
10
10
ENDCHAR
STARTCHAR 93
ENCODING 93
SWIDTH 274 0
DWIDTH 4 0
BBX 3 14 0 -3
BITMAP
e0
20
20
20
20
20
20
20
20
20
20
20
20
e0
ENDCHAR
STARTCHAR 94
ENCODING 94
SWIDTH 480 0
DWIDTH 7 0
BBX 7 4 0 6
BITMAP
10
28
44
82
ENDCHAR
STARTCHAR 95
ENCODING 95
SWIDTH 548 0
DWIDTH 8 0
BBX 8 1 0 -3
BITMAP
ff
ENDCHAR
STARTCHAR 96
ENCODING 96
SWIDTH 342 0
DWIDTH 5 0
BBX 2 2 1 9
BITMAP
80
40
ENDCHAR
STARTCHAR 97
ENCODING 97
SWIDTH 548 0
DWIDTH 8 0
BBX 7 8 1 0
BITMAP
78
cc
04
7c
c4
84
cc
76
ENDCHAR
STARTCHAR 98
ENCODING 98
SWIDTH 548 0
DWIDTH 8 0
BBX 6 11 1 0
BITMAP
80
80
80
b8
cc
84
84
84
84
cc
b8
ENDCHAR
STARTCHAR 99
ENCODING 99
SWIDTH 548 0
DWIDTH 8 0
BBX 6 8 1 0
BITMAP
78
cc
80
80
80
84
cc
78
ENDCHAR
STARTCHAR 100
ENCODING 100
SWIDTH 548 0
DWIDTH 8 0
BBX 6 11 1 0
BITMAP
04
04
04
74
cc
84
84
84
84
cc
74
ENDCHAR
STARTCHAR 101
ENCODING 101
SWIDTH 548 0
DWIDTH 8 0
BBX 6 8 1 0
BITMAP
78
cc
84
fc
80
80
cc
78
ENDCHAR
STARTCHAR 102
ENCODING 102
SWIDTH 205 0
DWIDTH 3 0
BBX 4 11 0 0
BITMAP
30
40
40
e0
40
40
40
40
40
40
40
ENDCHAR
STARTCHAR 103
ENCODING 103
SWIDTH 548 0
DWIDTH 8 0
BBX 6 11 1 -3
BITMAP
74
cc
84
84
84
84
cc
74
04
cc
78
ENDCHAR
STARTCHAR 104
ENCODING 104
SWIDTH 548 0
DWIDTH 8 0
BBX 6 11 1 0
BITMAP
80
80
80
b8
cc
84
84
84
84
84
84
ENDCHAR
STARTCHAR 105
ENCODING 105
SWIDTH 205 0
DWIDTH 3 0
BBX 1 11 1 0
BITMAP
80
80
00
80
80
80
80
80
80
80
80
ENDCHAR
STARTCHAR 106
ENCODING 106
SWIDTH 205 0
DWIDTH 3 0
BBX 3 14 -1 -3
BITMAP
20
20
00
20
20
20
20
20
20
20
20
20
20
c0
ENDCHAR
STARTCHAR 107
ENCODING 107
SWIDTH 480 0
DWIDTH 7 0
BBX 6 11 1 0
BITMAP
80
80
80
88
90
a0
c0
a0
90
88
84
ENDCHAR
STARTCHAR 108
ENCODING 108
SWIDTH 205 0
DWIDTH 3 0
BBX 1 11 1 0
BITMAP
80
80
80
80
80
80
80
80
80
80
80
ENDCHAR
STARTCHAR 109
ENCODING 109
SWIDTH 754 0
DWIDTH 11 0
BBX 9 8 1 0
BITMAP
b300
cc80
8880
8880
8880
8880
8880
8880
ENDCHAR
STARTCHAR 110
ENCODING 110
SWIDTH 548 0
DWIDTH 8 0
BBX 6 8 1 0
BITMAP
b8
cc
84
84
84
84
84
84
ENDCHAR
STARTCHAR 111
ENCODING 111
SWIDTH 548 0
DWIDTH 8 0
BBX 6 8 1 0
BITMAP
78
cc
84
84
84
84
cc
78
ENDCHAR
STARTCHAR 112
ENCODING 112
SWIDTH 548 0
DWIDTH 8 0
BBX 6 11 1 -3
BITMAP
b8
cc
84
84
84
84
cc
b8
80
80
80
ENDCHAR
STARTCHAR 113
ENCODING 113
SWIDTH 548 0
DWIDTH 8 0
BBX 6 11 1 -3
BITMAP
74
cc
84
84
84
84
cc
74
04
04
04
ENDCHAR
STARTCHAR 114
ENCODING 114
SWIDTH 342 0
DWIDTH 5 0
BBX 4 8 1 0
BITMAP
b0
c0
80
80
80
80
80
80
ENDCHAR
STARTCHAR 115
ENCODING 115
SWIDTH 548 0
DWIDTH 8 0
BBX 6 8 1 0
BITMAP
78
84
80
78
0c
04
84
78
ENDCHAR
STARTCHAR 116
ENCODING 116
SWIDTH 274 0
DWIDTH 4 0
BBX 4 10 0 0
BITMAP
40
40
f0
40
40
40
40
40
40
30
ENDCHAR
STARTCHAR 117
ENCODING 117
SWIDTH 548 0
DWIDTH 8 0
BBX 6 8 1 0
BITMAP
84
84
84
84
84
84
cc
74
ENDCHAR
STARTCHAR 118
ENCODING 118
SWIDTH 548 0
DWIDTH 8 0
BBX 6 8 1 0
BITMAP
84
84
84
48
48
48
30
30
ENDCHAR
STARTCHAR 119
ENCODING 119
SWIDTH 685 0
DWIDTH 10 0
BBX 9 8 0 0
BITMAP
8880
8880
8880
4900
4900
5500
2200
2200
ENDCHAR
STARTCHAR 120
ENCODING 120
SWIDTH 480 0
DWIDTH 7 0
BBX 7 8 0 0
BITMAP
c6
44
28
10
10
28
44
c6
ENDCHAR
STARTCHAR 121
ENCODING 121
SWIDTH 480 0
DWIDTH 7 0
BBX 7 11 0 -3
BITMAP
82
82
44
44
24
28
18
10
10
30
60
ENDCHAR
STARTCHAR 122
ENCODING 122
SWIDTH 480 0
DWIDTH 7 0
BBX 6 8 0 0
BITMAP
fc
04
08
10
20
40
80
fc
ENDCHAR
STARTCHAR 123
ENCODING 123
SWIDTH 342 0
DWIDTH 5 0
BBX 5 14 0 -3
BITMAP
18
20
20
20
20
40
80
40
20
20
20
20
20
18
ENDCHAR
STARTCHAR 124
ENCODING 124
SWIDTH 205 0
DWIDTH 3 0
BBX 1 14 1 -3
BITMAP
80
80
80
80
80
80
80
80
80
80
80
80
80
80
ENDCHAR
STARTCHAR 125
ENCODING 125
SWIDTH 342 0
DWIDTH 5 0
BBX 5 14 0 -3
BITMAP
c0
20
20
20
20
10
08
10
20
20
20
20
20
c0
ENDCHAR
STARTCHAR 126
ENCODING 126
SWIDTH 548 0
DWIDTH 8 0
BBX 6 3 1 3
BITMAP
64
b4
98
ENDCHAR
STARTCHAR 160
ENCODING 160
SWIDTH 274 0
DWIDTH 4 0
BBX 1 1 0 0
BITMAP
00
ENDCHAR
STARTCHAR 161
ENCODING 161
SWIDTH 274 0
DWIDTH 4 0
BBX 1 11 1 -3
BITMAP
80
80
00
80
80
80
80
80
80
80
80
ENDCHAR
STARTCHAR 162
ENCODING 162
SWIDTH 548 0
DWIDTH 8 0
BBX 6 10 1 -1
BITMAP
04
78
cc
90
90
a0
a4
cc
78
80
ENDCHAR
STARTCHAR 163
ENCODING 163
SWIDTH 548 0
DWIDTH 8 0
BBX 7 10 0 0
BITMAP
3c
42
40
20
20
f8
20
40
62
dc
ENDCHAR
STARTCHAR 164
ENCODING 164
SWIDTH 548 0
DWIDTH 8 0
BBX 6 6 1 2
BITMAP
84
78
48
48
78
84
ENDCHAR
STARTCHAR 165
ENCODING 165
SWIDTH 480 0
DWIDTH 7 0
BBX 7 10 0 0
BITMAP
82
82
44
44
28
fe
10
fe
10
10
ENDCHAR
STARTCHAR 166
ENCODING 166
SWIDTH 205 0
DWIDTH 3 0
BBX 1 13 1 -2
BITMAP
80
80
80
80
80
00
00
00
80
80
80
80
80
ENDCHAR
STARTCHAR 167
ENCODING 167
SWIDTH 548 0
DWIDTH 8 0
BBX 5 14 2 -3
BITMAP
70
d8
88
c0
70
98
88
88
c8
70
18
88
d8
70
ENDCHAR
STARTCHAR 168
ENCODING 168
SWIDTH 342 0
DWIDTH 5 0
BBX 5 1 0 9
BITMAP
d8
ENDCHAR
STARTCHAR 169
ENCODING 169
SWIDTH 822 0
DWIDTH 12 0
BBX 10 10 1 0
BITMAP
1e00
6180
4c80
9240
9040
9040
9240
4c80
6180
1e00
ENDCHAR
STARTCHAR 170
ENCODING 170
SWIDTH 411 0
DWIDTH 6 0
BBX 4 7 1 4
BITMAP
e0
10
70
90
d0
00
f0
ENDCHAR
STARTCHAR 171
ENCODING 171
SWIDTH 548 0
DWIDTH 8 0
BBX 6 5 1 2
BITMAP
24
48
90
48
24
ENDCHAR
STARTCHAR 172
ENCODING 172
SWIDTH 617 0
DWIDTH 9 0
BBX 7 4 1 3
BITMAP
fe
02
02
02
ENDCHAR
STARTCHAR 173
ENCODING 173
SWIDTH 342 0
DWIDTH 5 0
BBX 4 1 0 4
BITMAP
f0
ENDCHAR
STARTCHAR 174
ENCODING 174
SWIDTH 822 0
DWIDTH 12 0
BBX 10 10 1 0
BITMAP
1e00
6180
5c80
9240
9240
9c40
9240
5280
6180
1e00
ENDCHAR
STARTCHAR 175
ENCODING 175
SWIDTH 274 0
DWIDTH 4 0
BBX 4 1 0 9
BITMAP
f0
ENDCHAR
STARTCHAR 176
ENCODING 176
SWIDTH 411 0
DWIDTH 6 0
BBX 4 4 1 6
BITMAP
60
90
90
60
ENDCHAR
STARTCHAR 177
ENCODING 177
SWIDTH 617 0
DWIDTH 9 0
BBX 7 9 1 0
BITMAP
10
10
10
fe
10
10
10
00
fe
ENDCHAR
STARTCHAR 178
ENCODING 178
SWIDTH 342 0
DWIDTH 5 0
BBX 4 6 0 4
BITMAP
60
90
10
20
40
f0
ENDCHAR
STARTCHAR 179
ENCODING 179
SWIDTH 342 0
DWIDTH 5 0
BBX 4 6 0 4
BITMAP
60
90
20
10
90
60
ENDCHAR
STARTCHAR 180
ENCODING 180
SWIDTH 342 0
DWIDTH 5 0
BBX 2 2 2 9
BITMAP
40
80
ENDCHAR
STARTCHAR 181
ENCODING 181
SWIDTH 548 0
DWIDTH 8 0
BBX 6 11 1 -3
BITMAP
84
84
84
84
84
84
cc
b4
80
80
80
ENDCHAR
STARTCHAR 182
ENCODING 182
SWIDTH 548 0
DWIDTH 8 0
BBX 7 14 0 -3
BITMAP
3e
74
f4
f4
f4
74
34
14
14
14
14
14
14
14
ENDCHAR
STARTCHAR 183
ENCODING 183
SWIDTH 274 0
DWIDTH 4 0
BBX 2 1 1 4
BITMAP
c0
ENDCHAR
STARTCHAR 184
ENCODING 184
SWIDTH 342 0
DWIDTH 5 0
BBX 4 3 0 -3
BITMAP
20
90
60
ENDCHAR
STARTCHAR 185
ENCODING 185
SWIDTH 342 0
DWIDTH 5 0
BBX 2 6 1 4
BITMAP
40
c0
40
40
40
40
ENDCHAR
STARTCHAR 186
ENCODING 186
SWIDTH 411 0
DWIDTH 6 0
BBX 4 7 1 4
BITMAP
60
90
90
90
60
00
f0
ENDCHAR
STARTCHAR 187
ENCODING 187
SWIDTH 548 0
DWIDTH 8 0
BBX 6 5 1 2
BITMAP
90
48
24
48
90
ENDCHAR
STARTCHAR 188
ENCODING 188
SWIDTH 822 0
DWIDTH 12 0
BBX 10 11 1 0
BITMAP
4100
c200
4200
4400
4400
4880
0980
1280
1480
27c0
2080
ENDCHAR
STARTCHAR 189
ENCODING 189
SWIDTH 822 0
DWIDTH 12 0
BBX 9 11 1 0
BITMAP
4200
c400
4400
4800
4800
5300
1480
2080
2100
4200
4780
ENDCHAR
STARTCHAR 190
ENCODING 190
SWIDTH 822 0
DWIDTH 12 0
BBX 11 11 0 0
BITMAP
6080
9100
2100
1200
9200
6440
04c0
0940
0a40
13e0
1040
ENDCHAR
STARTCHAR 191
ENCODING 191
SWIDTH 548 0
DWIDTH 8 0
BBX 6 11 1 -3
BITMAP
10
10
00
10
20
40
80
84
84
cc
30
ENDCHAR
STARTCHAR 192
ENCODING 192
SWIDTH 754 0
DWIDTH 11 0
BBX 9 14 1 0
BITMAP
1000
0800
0000
0800
0800
1400
1400
2200
2200
4100
7f00
4100
8080
8080
ENDCHAR
STARTCHAR 193
ENCODING 193
SWIDTH 754 0
DWIDTH 11 0
BBX 9 14 1 0
BITMAP
0400
0800
0000
0800
0800
1400
1400
2200
2200
4100
7f00
4100
8080
8080
ENDCHAR
STARTCHAR 194
ENCODING 194
SWIDTH 754 0
DWIDTH 11 0
BBX 9 14 1 0
BITMAP
0800
1400
0000
0800
0800
1400
1400
2200
2200
4100
7f00
4100
8080
8080
ENDCHAR
STARTCHAR 195
ENCODING 195
SWIDTH 754 0
DWIDTH 11 0
BBX 9 14 1 0
BITMAP
1a00
2c00
0000
0800
0800
1400
1400
2200
2200
4100
7f00
4100
8080
8080
ENDCHAR
STARTCHAR 196
ENCODING 196
SWIDTH 754 0
DWIDTH 11 0
BBX 9 13 1 0
BITMAP
3600
0000
0800
0800
1400
1400
2200
2200
4100
7f00
4100
8080
8080
ENDCHAR
STARTCHAR 197
ENCODING 197
SWIDTH 754 0
DWIDTH 11 0
BBX 9 14 1 0
BITMAP
1c00
2200
1c00
0800
0800
1400
1400
2200
2200
4100
7f00
4100
8080
8080
ENDCHAR
STARTCHAR 198
ENCODING 198
SWIDTH 960 0
DWIDTH 14 0
BBX 12 11 1 0
BITMAP
0ff0
1c00
1400
1400
2400
27e0
4400
7c00
4400
8400
87f0
ENDCHAR
STARTCHAR 199
ENCODING 199
SWIDTH 685 0
DWIDTH 10 0
BBX 8 14 1 -3
BITMAP
1c
63
41
80
80
80
80
80
41
63
1c
08
24
18
ENDCHAR
STARTCHAR 200
ENCODING 200
SWIDTH 617 0
DWIDTH 9 0
BBX 7 14 1 0
BITMAP
20
10
00
fe
80
80
80
80
fc
80
80
80
80
fe
ENDCHAR
STARTCHAR 201
ENCODING 201
SWIDTH 617 0
DWIDTH 9 0
BBX 7 14 1 0
BITMAP
08
10
00
fe
80
80
80
80
fc
80
80
80
80
fe
ENDCHAR
STARTCHAR 202
ENCODING 202
SWIDTH 617 0
DWIDTH 9 0
BBX 7 14 1 0
BITMAP
10
28
00
fe
80
80
80
80
fc
80
80
80
80
fe
ENDCHAR
STARTCHAR 203
ENCODING 203
SWIDTH 617 0
DWIDTH 9 0
BBX 7 13 1 0
BITMAP
6c
00
fe
80
80
80
80
fc
80
80
80
80
fe
ENDCHAR
STARTCHAR 204
ENCODING 204
SWIDTH 342 0
DWIDTH 5 0
BBX 2 14 1 0
BITMAP
80
40
00
40
40
40
40
40
40
40
40
40
40
40
ENDCHAR
STARTCHAR 205
ENCODING 205
SWIDTH 342 0
DWIDTH 5 0
BBX 2 14 2 0
BITMAP
40
80
00
80
80
80
80
80
80
80
80
80
80
80
ENDCHAR
STARTCHAR 206
ENCODING 206
SWIDTH 342 0
DWIDTH 5 0
BBX 3 14 1 0
BITMAP
40
a0
00
40
40
40
40
40
40
40
40
40
40
40
ENDCHAR
STARTCHAR 207
ENCODING 207
SWIDTH 342 0
DWIDTH 5 0
BBX 5 13 0 0
BITMAP
d8
00
20
20
20
20
20
20
20
20
20
20
20
ENDCHAR
STARTCHAR 208
ENCODING 208
SWIDTH 685 0
DWIDTH 10 0
BBX 9 11 0 0
BITMAP
7c00
4300
4100
4080
4080
f080
4080
4080
4100
4300
7c00
ENDCHAR
STARTCHAR 209
ENCODING 209
SWIDTH 685 0
DWIDTH 10 0
BBX 8 14 1 0
BITMAP
1a
2c
00
c1
c1
a1
91
91
89
89
85
85
83
83
ENDCHAR
STARTCHAR 210
ENCODING 210
SWIDTH 754 0
DWIDTH 11 0
BBX 9 14 1 0
BITMAP
1000
0800
0000
1c00
6300
4100
8080
8080
8080
8080
8080
4100
6300
1c00
ENDCHAR
STARTCHAR 211
ENCODING 211
SWIDTH 754 0
DWIDTH 11 0
BBX 9 14 1 0
BITMAP
0400
0800
0000
1c00
6300
4100
8080
8080
8080
8080
8080
4100
6300
1c00
ENDCHAR
STARTCHAR 212
ENCODING 212
SWIDTH 754 0
DWIDTH 11 0
BBX 9 14 1 0
BITMAP
0800
1400
0000
1c00
6300
4100
8080
8080
8080
8080
8080
4100
6300
1c00
ENDCHAR
STARTCHAR 213
ENCODING 213
SWIDTH 754 0
DWIDTH 11 0
BBX 9 14 1 0
BITMAP
1a00
2c00
0000
1c00
6300
4100
8080
8080
8080
8080
8080
4100
6300
1c00
ENDCHAR
STARTCHAR 214
ENCODING 214
SWIDTH 754 0
DWIDTH 11 0
BBX 9 13 1 0
BITMAP
3600
0000
1c00
6300
4100
8080
8080
8080
8080
8080
4100
6300
1c00
ENDCHAR
STARTCHAR 215
ENCODING 215
SWIDTH 617 0
DWIDTH 9 0
BBX 7 7 1 1
BITMAP
82
44
28
10
28
44
82
ENDCHAR
STARTCHAR 216
ENCODING 216
SWIDTH 754 0
DWIDTH 11 0
BBX 11 11 0 0
BITMAP
0e20
31c0
2080
4140
4240
4440
4840
5040
2080
7180
8e00
ENDCHAR
STARTCHAR 217
ENCODING 217
SWIDTH 685 0
DWIDTH 10 0
BBX 8 14 1 0
BITMAP
10
08
00
81
81
81
81
81
81
81
81
81
42
3c
ENDCHAR
STARTCHAR 218
ENCODING 218
SWIDTH 685 0
DWIDTH 10 0
BBX 8 14 1 0
BITMAP
04
08
00
81
81
81
81
81
81
81
81
81
42
3c
ENDCHAR
STARTCHAR 219
ENCODING 219
SWIDTH 685 0
DWIDTH 10 0
BBX 8 14 1 0
BITMAP
08
14
00
81
81
81
81
81
81
81
81
81
42
3c
ENDCHAR
STARTCHAR 220
ENCODING 220
SWIDTH 685 0
DWIDTH 10 0
BBX 8 13 1 0
BITMAP
66
00
81
81
81
81
81
81
81
81
81
42
3c
ENDCHAR
STARTCHAR 221
ENCODING 221
SWIDTH 617 0
DWIDTH 9 0
BBX 9 14 0 0
BITMAP
0400
0800
0000
8080
4100
4100
2200
2200
1400
0800
0800
0800
0800
0800
ENDCHAR
STARTCHAR 222
ENCODING 222
SWIDTH 617 0
DWIDTH 9 0
BBX 7 11 1 0
BITMAP
80
80
fc
86
82
82
86
fc
80
80
80
ENDCHAR
STARTCHAR 223
ENCODING 223
SWIDTH 480 0
DWIDTH 7 0
BBX 5 11 1 0
BITMAP
70
88
88
88
b0
90
88
88
88
88
b0
ENDCHAR
STARTCHAR 224
ENCODING 224
SWIDTH 548 0
DWIDTH 8 0
BBX 7 11 1 0
BITMAP
20
10
00
78
cc
04
7c
c4
84
cc
76
ENDCHAR
STARTCHAR 225
ENCODING 225
SWIDTH 548 0
DWIDTH 8 0
BBX 7 11 1 0
BITMAP
08
10
00
78
cc
04
7c
c4
84
cc
76
ENDCHAR
STARTCHAR 226
ENCODING 226
SWIDTH 548 0
DWIDTH 8 0
BBX 7 11 1 0
BITMAP
10
28
00
78
cc
04
7c
c4
84
cc
76
ENDCHAR
STARTCHAR 227
ENCODING 227
SWIDTH 548 0
DWIDTH 8 0
BBX 7 11 1 0
BITMAP
34
58
00
78
cc
04
7c
c4
84
cc
76
ENDCHAR
STARTCHAR 228
ENCODING 228
SWIDTH 548 0
DWIDTH 8 0
BBX 7 10 1 0
BITMAP
6c
00
78
cc
04
7c
c4
84
cc
76
ENDCHAR
STARTCHAR 229
ENCODING 229
SWIDTH 548 0
DWIDTH 8 0
BBX 7 12 1 0
BITMAP
30
48
30
00
78
cc
04
7c
c4
84
cc
76
ENDCHAR
STARTCHAR 230
ENCODING 230
SWIDTH 891 0
DWIDTH 13 0
BBX 11 8 1 0
BITMAP
7bc0
c660
0420
7fe0
c400
8400
ce60
7bc0
ENDCHAR
STARTCHAR 231
ENCODING 231
SWIDTH 548 0
DWIDTH 8 0
BBX 6 11 1 -3
BITMAP
78
cc
80
80
80
84
cc
78
10
48
30
ENDCHAR
STARTCHAR 232
ENCODING 232
SWIDTH 548 0
DWIDTH 8 0
BBX 6 11 1 0
BITMAP
20
10
00
78
cc
84
fc
80
80
cc
78
ENDCHAR
STARTCHAR 233
ENCODING 233
SWIDTH 548 0
DWIDTH 8 0
BBX 6 11 1 0
BITMAP
10
20
00
78
cc
84
fc
80
80
cc
78
ENDCHAR
STARTCHAR 234
ENCODING 234
SWIDTH 548 0
DWIDTH 8 0
BBX 6 11 1 0
BITMAP
10
28
00
78
cc
84
fc
80
80
cc
78
ENDCHAR
STARTCHAR 235
ENCODING 235
SWIDTH 548 0
DWIDTH 8 0
BBX 6 10 1 0
BITMAP
cc
00
78
cc
84
fc
80
80
cc
78
ENDCHAR
STARTCHAR 236
ENCODING 236
SWIDTH 205 0
DWIDTH 3 0
BBX 2 11 0 0
BITMAP
80
40
00
40
40
40
40
40
40
40
40
ENDCHAR
STARTCHAR 237
ENCODING 237
SWIDTH 205 0
DWIDTH 3 0
BBX 2 11 1 0
BITMAP
40
80
00
80
80
80
80
80
80
80
80
ENDCHAR
STARTCHAR 238
ENCODING 238
SWIDTH 205 0
DWIDTH 3 0
BBX 3 11 0 0
BITMAP
40
a0
00
40
40
40
40
40
40
40
40
ENDCHAR
STARTCHAR 239
ENCODING 239
SWIDTH 205 0
DWIDTH 3 0
BBX 3 10 0 0
BITMAP
a0
00
40
40
40
40
40
40
40
40
ENDCHAR
STARTCHAR 240
ENCODING 240
SWIDTH 548 0
DWIDTH 8 0
BBX 6 11 1 0
BITMAP
d8
70
90
08
7c
84
84
84
84
cc
78
ENDCHAR
STARTCHAR 241
ENCODING 241
SWIDTH 548 0
DWIDTH 8 0
BBX 6 11 1 0
BITMAP
34
58
00
b8
cc
84
84
84
84
84
84
ENDCHAR
STARTCHAR 242
ENCODING 242
SWIDTH 548 0
DWIDTH 8 0
BBX 6 11 1 0
BITMAP
20
10
00
78
cc
84
84
84
84
cc
78
ENDCHAR
STARTCHAR 243
ENCODING 243
SWIDTH 548 0
DWIDTH 8 0
BBX 6 11 1 0
BITMAP
08
10
00
78
cc
84
84
84
84
cc
78
ENDCHAR
STARTCHAR 244
ENCODING 244
SWIDTH 548 0
DWIDTH 8 0
BBX 6 11 1 0
BITMAP
30
48
00
78
cc
84
84
84
84
cc
78
ENDCHAR
STARTCHAR 245
ENCODING 245
SWIDTH 548 0
DWIDTH 8 0
BBX 6 11 1 0
BITMAP
34
58
00
78
cc
84
84
84
84
cc
78
ENDCHAR
STARTCHAR 246
ENCODING 246
SWIDTH 548 0
DWIDTH 8 0
BBX 6 10 1 0
BITMAP
cc
00
78
cc
84
84
84
84
cc
78
ENDCHAR
STARTCHAR 247
ENCODING 247
SWIDTH 617 0
DWIDTH 9 0
BBX 7 7 1 1
BITMAP
10
10
00
fe
00
10
10
ENDCHAR
STARTCHAR 248
ENCODING 248
SWIDTH 548 0
DWIDTH 8 0
BBX 8 8 0 0
BITMAP
3d
62
46
4a
52
62
46
bc
ENDCHAR
STARTCHAR 249
ENCODING 249
SWIDTH 548 0
DWIDTH 8 0
BBX 6 11 1 0
BITMAP
20
10
00
84
84
84
84
84
84
cc
74
ENDCHAR
STARTCHAR 250
ENCODING 250
SWIDTH 548 0
DWIDTH 8 0
BBX 6 11 1 0
BITMAP
08
10
00
84
84
84
84
84
84
cc
74
ENDCHAR
STARTCHAR 251
ENCODING 251
SWIDTH 548 0
DWIDTH 8 0
BBX 6 11 1 0
BITMAP
30
48
00
84
84
84
84
84
84
cc
74
ENDCHAR
STARTCHAR 252
ENCODING 252
SWIDTH 548 0
DWIDTH 8 0
BBX 6 10 1 0
BITMAP
cc
00
84
84
84
84
84
84
cc
74
ENDCHAR
STARTCHAR 253
ENCODING 253
SWIDTH 480 0
DWIDTH 7 0
BBX 7 14 0 -3
BITMAP
08
10
00
82
c2
44
44
24
28
18
10
10
30
60
ENDCHAR
STARTCHAR 254
ENCODING 254
SWIDTH 548 0
DWIDTH 8 0
BBX 6 14 1 -3
BITMAP
80
80
80
b8
cc
84
84
84
84
cc
b8
80
80
80
ENDCHAR
STARTCHAR 255
ENCODING 255
SWIDTH 480 0
DWIDTH 7 0
BBX 7 13 0 -3
BITMAP
6c
00
82
c2
44
44
24
28
18
10
10
30
60
ENDCHAR
ENDFONT
